<svg xmlns="http://www.w3.org/2000/svg" width="167" height="140" viewBox="0 0 167 140"><defs><style>.cls-1{fill:#ff3163;}.cls-2{fill:#f1c40f;}</style></defs><title>icon-3</title><g id="Layer_2" data-name="Layer 2"><g id="Layer_1-2" data-name="Layer 1"><path class="cls-1" d="M163.645,82.67513a3.34294,3.34294,0,0,1-2.37213-.98238L142.97457,63.3944a3.35469,3.35469,0,1,1,4.74425-4.74425L166.01717,76.9485a3.3545,3.3545,0,0,1-2.37213,5.72663Z"/><path class="cls-1" d="M145.34669,82.67513a3.3545,3.3545,0,0,1-2.37213-5.72663l18.29835-18.29835a3.35469,3.35469,0,0,1,4.74425,4.74425L147.71882,81.69275A3.34294,3.34294,0,0,1,145.34669,82.67513Z"/><path class="cls-2" d="M138.243,30.278H110.86714a3.65414,3.65414,0,0,1-3.16794-5.477L121.402,1.80613A3.60518,3.60518,0,0,1,124.55463,0h.0018a3.61654,3.61654,0,0,1,3.167,1.83317l13.67217,22.94166A3.654,3.654,0,0,1,138.243,30.278Zm-.23162-3.52124h0Zm-26.6729-.40106h26.43406L124.55463,4.17736Zm12.99983-22.5415.0009.0027Zm.44793-.02524-.0027.00361Z"/><path class="cls-1" d="M125.94708,19.552h-2.7849l-.4299-7.98339h3.64561Zm-3.18146,2.95344a1.55523,1.55523,0,0,1,.456-1.19417,1.87154,1.87154,0,0,1,1.32486-.4263,1.80859,1.80859,0,0,1,1.30323.4263,1.57816,1.57816,0,0,1,.44342,1.19417,1.53519,1.53519,0,0,1-.45964,1.18516,1.824,1.824,0,0,1-1.287.4263,1.882,1.882,0,0,1-1.30773-.4263A1.51238,1.51238,0,0,1,122.76562,22.50545Z"/><path class="cls-1" d="M30.58293,127.51209H22.96545l-1.178-21.83852H31.76Zm-8.7026,8.07893a4.25362,4.25362,0,0,1,1.24645-3.26618,5.118,5.118,0,0,1,3.624-1.16624,4.95255,4.95255,0,0,1,3.5663,1.16624,4.3178,4.3178,0,0,1,1.2122,3.26618,4.20161,4.20161,0,0,1-1.25816,3.24365A4.98625,4.98625,0,0,1,26.75076,140a5.1514,5.1514,0,0,1-3.578-1.16533A4.1447,4.1447,0,0,1,21.88033,135.591Z"/><path class="cls-2" d="M138.09972,117.87029a9.31614,9.31614,0,0,0-2.68306-6.00963L112.67445,89.119a35.93219,35.93219,0,0,1-3.96393,5.48137L130.694,116.58329a2.58925,2.58925,0,0,1,.73723,1.64841,2.09813,2.09813,0,0,1-.67415,1.66373l-.17394.17394a2.31158,2.31158,0,0,1-3.31485-.06038L105.28527,98.02537a35.92458,35.92458,0,0,1-5.48143,3.96387l22.74187,22.74237a9.31343,9.31343,0,0,0,6.01233,2.68216c.16133.009.32265.01262.48218.01262a8.7961,8.7961,0,0,0,6.27189-2.6407l.17034-.17124A8.77393,8.77393,0,0,0,138.09972,117.87029Z"/><path class="cls-2" d="M81.61122,110.36006A39.4348,39.4348,0,1,1,109.50893,98.823,39.33063,39.33063,0,0,1,81.61122,110.36006Zm0-71.95148a32.5167,32.5167,0,1,0,23.00385,9.51284A32.43148,32.43148,0,0,0,81.61122,38.40859Z"/><path class="cls-1" d="M16.63446,8.02577l-1.34748,4.693a15.15124,15.15124,0,0,0-3.46164,1.44041L7.57379,11.78943,3.76366,15.59956,6.13338,19.8511A15.15276,15.15276,0,0,0,4.693,23.31274L0,24.66023v5.38994l4.693,1.34748a15.15327,15.15327,0,0,0,1.44041,3.46159L3.76366,39.11083,7.57379,42.921l4.25154-2.36971A15.15124,15.15124,0,0,0,15.287,41.99166l1.34748,4.693h5.38994l1.34748-4.693a15.15124,15.15124,0,0,0,3.46164-1.44041L31.08506,42.921l3.81013-3.81013-2.36971-4.25159a15.15242,15.15242,0,0,0,1.44041-3.46159l4.693-1.34748V24.66023l-4.693-1.34748a15.15276,15.15276,0,0,0-1.44041-3.46164l2.36971-4.25154-3.81013-3.81013-4.25154,2.36971a15.15124,15.15124,0,0,0-3.46164-1.44041l-1.34748-4.693Zm9.42532,19.32942a6.73035,6.73035,0,1,1-6.73035-6.73035A6.74745,6.74745,0,0,1,26.05978,27.35519Z"/><path class="cls-1" d="M44.45531,3.67383l.3661,2.99167a9.35276,9.35276,0,0,0-1.61964,1.65332L40.2144,7.9976l-1.24617,3.08392,2.37188,1.84438a9.3537,9.3537,0,0,0,.01634,2.3144l-2.34173,1.89747,1.29987,3.06274,2.99167-.3661A9.354,9.354,0,0,0,44.95956,21.454l-.32121,2.98739,3.08392,1.24617,1.84438-2.37188a9.35276,9.35276,0,0,0,2.3144-.01634l1.89747,2.34173,3.06274-1.29987-.3661-2.99167a9.35276,9.35276,0,0,0,1.61964-1.65332l2.98737.32122,1.24617-3.08392-2.37189-1.8444a9.35348,9.35348,0,0,0-.01633-2.31437l2.34173-1.89747L60.982,7.81456l-2.99167.3661A9.3537,9.3537,0,0,0,56.337,6.561l.32122-2.98737L53.5743,2.32748,51.72992,4.69936a9.35276,9.35276,0,0,0-2.3144.01634L47.51805,2.374Zm9.76329,8.81841a3.87857,3.87857,0,1,1-5.08561-2.055A3.88842,3.88842,0,0,1,54.2186,12.49224Z"/><path class="cls-1" d="M81.61116,61.11322c2.92623,0,5.07372.7334,6.38275,2.17993,1.51069,1.66925,2.08383,4.44345,1.70356,8.24544C88.50887,83.421,83.3172,83.421,81.61116,83.421c-1.69578,0-6.85631,0-8.08743-11.89341-.264-2.55046-.17535-6.038,1.7462-8.16872,1.34384-1.49013,3.47736-2.24561,6.34123-2.24561m0-3.22134c-7.38124,0-12.289,4.332-11.29159,13.96733.7961,7.691,3.62516,14.78309,11.29159,14.78309s10.522-7.08911,11.29159-14.78309c.9973-9.971-3.94292-13.96733-11.29159-13.96733Z"/><rect class="cls-1" x="73.06544" y="67.55725" width="17.09156" height="2.39556"/><rect class="cls-1" x="80.40353" y="69.26335" width="2.41539" height="16.10107"/><rect class="cls-1" x="64.68098" y="73.28839" width="7.35431" height="2.39556"/><path class="cls-1" d="M63.07043,77.59463a3.20715,3.20715,0,1,1,3.2067-3.2067A3.21039,3.21039,0,0,1,63.07043,77.59463Zm0-4.44774a1.24059,1.24059,0,1,0,1.24014,1.241A1.24277,1.24277,0,0,0,63.07043,73.14689Z"/><rect class="cls-1" x="91.18715" y="73.28839" width="7.35431" height="2.39556"/><path class="cls-1" d="M100.152,77.59463a3.20715,3.20715,0,1,1,3.2076-3.2067A3.21039,3.21039,0,0,1,100.152,77.59463Zm0-4.44774a1.24059,1.24059,0,1,0,1.241,1.241A1.24277,1.24277,0,0,0,100.152,73.14689Z"/><rect class="cls-1" x="75.55559" y="52.98885" width="2.39474" height="7.35417" transform="translate(-14.89244 30.14865) rotate(-20.30046)"/><path class="cls-1" d="M74.86706,54.479A3.20726,3.20726,0,1,1,77.871,50.15836a3.20895,3.20895,0,0,1-1.89536,4.12148h-.0009A3.18607,3.18607,0,0,1,74.86706,54.479Zm-.00361-4.44864a1.22956,1.22956,0,0,0-.4308.07841,1.23957,1.23957,0,1,0,.85981,2.32526h0a1.24069,1.24069,0,0,0-.429-2.40367Z"/><rect class="cls-1" x="82.79179" y="55.46856" width="7.35448" height="2.39474" transform="translate(3.31956 118.09953) rotate(-69.69634)"/><path class="cls-1" d="M88.36078,54.47992a3.21785,3.21785,0,0,1-1.11306-.20008h-.0009a3.193,3.193,0,1,1,1.114.20008Zm-.43171-2.04587a1.23892,1.23892,0,1,0-.69578-.6444,1.23542,1.23542,0,0,0,.69578.6444Z"/><path class="cls-1" d="M72.03529,69.95281H67.57855a2.83171,2.83171,0,0,1-2.82817-2.82817V63.39342h2.39556v3.73123a.43272.43272,0,0,0,.43261.43261h4.45675Z"/><path class="cls-1" d="M65.94816,65.0959a3.2076,3.2076,0,1,1,3.2076-3.2076A3.21039,3.21039,0,0,1,65.94816,65.0959Zm0-4.44864a1.241,1.241,0,1,0,1.241,1.241A1.24258,1.24258,0,0,0,65.94816,60.64727Z"/><path class="cls-1" d="M95.64389,69.95281H91.18715V67.55725h4.45675a.43272.43272,0,0,0,.43261-.43261V63.39342h2.39556v3.73123A2.83171,2.83171,0,0,1,95.64389,69.95281Z"/><path class="cls-1" d="M97.27428,65.0959a3.2076,3.2076,0,1,1,3.2067-3.2076A3.21058,3.21058,0,0,1,97.27428,65.0959Zm0-4.44864a1.241,1.241,0,1,0,1.24014,1.241A1.24277,1.24277,0,0,0,97.27428,60.64727Z"/><path class="cls-1" d="M69.79746,86.80554H67.4019V81.63139a2.83171,2.83171,0,0,1,2.82817-2.82817h3.715v2.39556h-3.715a.43272.43272,0,0,0-.43261.43261Z"/><path class="cls-1" d="M68.59968,91.70571a3.20715,3.20715,0,1,1,3.2076-3.2067A3.21039,3.21039,0,0,1,68.59968,91.70571Zm0-4.44774a1.24059,1.24059,0,1,0,1.241,1.241A1.24277,1.24277,0,0,0,68.59968,87.258Z"/><path class="cls-1" d="M95.82054,86.80554H93.425V81.63139a.43272.43272,0,0,0-.43261-.43261h-3.715V78.80322h3.715a2.83171,2.83171,0,0,1,2.82817,2.82817Z"/><path class="cls-1" d="M94.62276,91.70571a3.20715,3.20715,0,1,1,3.2076-3.2067A3.21039,3.21039,0,0,1,94.62276,91.70571Zm0-4.44774a1.24059,1.24059,0,1,0,1.241,1.241A1.24277,1.24277,0,0,0,94.62276,87.258Z"/></g></g></svg>