<svg xmlns="http://www.w3.org/2000/svg" width="140" height="140" viewBox="0 0 140 140"><defs><style>.cls-1{fill:#ff3163;}.cls-2{fill:#fff;}.cls-3{fill:#f1c40f;}</style></defs><title>icon-1</title><g id="Layer_2" data-name="Layer 2"><g id="Layer_1-2" data-name="Layer 1"><path class="cls-1" d="M63.11977,67.30422c-.30586,1.6939-1.046,5.83216-1.39121,8.09452a1.50624,1.50624,0,1,0,2.97792.45505c.24575-1.60977.7069-4.25178,1.05637-6.2173A8.96822,8.96822,0,0,1,63.11977,67.30422Z"/><path class="cls-1" d="M76.40241,67.139a10.07974,10.07974,0,0,1-2.64864,2.36035c.36029,2.08168.85818,4.96232,1.10059,6.3803a1.50682,1.50682,0,0,0,1.48275,1.25331,1.55739,1.55739,0,0,0,.25573-.022,1.506,1.506,0,0,0,1.23084-1.738C77.493,73.43751,76.68389,68.76366,76.40241,67.139Z"/><path class="cls-1" d="M79.90123,57.12253c-1.0838.07421-1.32071-.90939-2.15822-2.10677l-.79694,7.03635c-.392,4.07444-4.11221,7.13936-7.17664,7.15848h-.03824c-3.63756,0-6.69578-3.07543-7.12311-7.18334l-1.08362-9.56376c.00185-.09393.01428-.18678.02276-.28-1.99056,1.909-.18857,4.98993-1.529,4.62A2.43486,2.43486,0,0,1,58.85652,55.674l.75691,6.67833c.58555,5.63749,4.93006,9.87159,10.11776,9.87159h.05688c4.90664-.03059,9.65315-4.649,10.15409-9.85821L80.59641,56.59C80.355,56.90707,80.11638,57.10771,79.90123,57.12253Z"/><path class="cls-1" d="M79.78107,58.63252a3.29182,3.29182,0,0,1-2.80489-2.02c-.73516-1.217-1.65052-2.73223-5.49123-3.55438a10.45378,10.45378,0,0,1-6.26176-3.91,6.33479,6.33479,0,0,1-2.43635,3.95017c-.76718.55926-.78822,1.34986-.73325,2.49132a2.58739,2.58739,0,0,1-.70313,2.36035,1.88613,1.88613,0,0,1-1.73322.30592A4.29206,4.29206,0,0,1,57.20863,55.82c-1.21077-2.37469-2.02-6.24742-.93592-9.13834,1.9985-5.32871,8.53463-8.9089,13.38582-8.9089,5.43626,0,11.76015,4.627,13.5732,8.60777,1.46124,3.20736.2868,8.30758-1.08362,10.6077a2.97225,2.97225,0,0,1-2.14382,1.63666C79.92781,58.62965,79.85325,58.63252,79.78107,58.63252ZM60.54982,55.40509ZM64.48422,42.221A9.14345,9.14345,0,0,1,65.923,44.5058c1.09127,2.14047,2.44926,4.80387,6.19293,5.60595,5.11457,1.09557,6.56959,3.50372,7.43906,4.94249.03824.0631.07983.13193.12237.20171.78439-1.50856,1.802-5.45586.81259-7.62692-1.37376-3.01616-6.74884-6.843-10.83141-6.843A11.63637,11.63637,0,0,0,64.48422,42.221Zm-2.57353,1.72939a9.51615,9.51615,0,0,0-2.81684,3.7886,8.65692,8.65692,0,0,0,.21558,5.22546,4.57446,4.57446,0,0,1,1.70215-2.30012h0C63.02824,49.194,62.41927,45.588,61.91068,43.95037Z"/><path class="cls-1" d="M94.11093,101.21247a1.5059,1.5059,0,0,1-1.50282-1.4273l-.65486-12.47954c-.12332-1.56209-5.81387-8.09918-15.03491-9.8496-1.43064,1.542-4.20685,2.58405-7.13984,2.58405-2.94016,0-5.65853-.99423-7.09347-2.51044-8.97535,1.8097-14.51867,8.25022-14.642,9.81423l-.64386,12.43939a1.50625,1.50625,0,1,1-3.00851-.15487l.64625-12.47954c.26959-3.43966,7.50646-11.036,18.05107-12.75391a1.50672,1.50672,0,0,1,1.57739.78869c.40391.7734,2.40528,1.84316,5.11313,1.84316,2.70164,0,4.74412-1.11086,5.12317-1.87948a1.50447,1.50447,0,0,1,1.57739-.82215c10.7989,1.64144,18.20738,9.31711,18.48031,12.78259l.65725,12.51874a1.50606,1.50606,0,0,1-1.42539,1.58313Q94.15109,101.21247,94.11093,101.21247Z"/><line class="cls-2" x1="55.77207" y1="99.70573" x2="55.94043" y2="92.72181"/><path class="cls-1" d="M55.77272,101.21247c-.01195,0-.02438,0-.03681-.001a1.50594,1.50594,0,0,1-1.46936-1.542l.16825-6.98449A1.50626,1.50626,0,0,1,55.94,91.21469c.01195,0,.02438,0,.03681.001a1.50594,1.50594,0,0,1,1.46936,1.542l-.16825,6.98449A1.50626,1.50626,0,0,1,55.77272,101.21247Z"/><line class="cls-2" x1="84.22679" y1="99.70573" x2="84.05843" y2="92.72181"/><path class="cls-1" d="M84.22644,101.21247a1.50626,1.50626,0,0,1-1.50521-1.47032L82.553,92.75767a1.50594,1.50594,0,0,1,1.46936-1.542c.01243-.001.02486-.001.03681-.001A1.50626,1.50626,0,0,1,85.56435,92.685l.16825,6.98449a1.50594,1.50594,0,0,1-1.46936,1.542C84.25082,101.21247,84.23839,101.21247,84.22644,101.21247Z"/><path class="cls-3" d="M89.26563,124.5791a2.93711,2.93711,0,0,1-1.02441-5.68945A52.3236,52.3236,0,0,0,118.8623,88.50391a2.937,2.937,0,1,1,5.48828,2.09375A58.199,58.199,0,0,1,90.29,124.39355,2.92508,2.92508,0,0,1,89.26563,124.5791Z"/><path class="cls-3" d="M50.73438,124.57617a2.92706,2.92706,0,0,1-1.02441-.18555A58.06508,58.06508,0,0,1,15.25439,89.52441,2.93684,2.93684,0,0,1,20.78271,87.54a52.20626,52.20626,0,0,0,30.97705,31.34668,2.93713,2.93713,0,0,1-1.02539,5.68945Z"/><path class="cls-3" d="M18.501,52.88721a2.93825,2.93825,0,0,1-2.73828-3.998A58.23991,58.23991,0,0,1,49.65283,15.38525a2.93672,2.93672,0,0,1,2.05566,5.502,52.36127,52.36127,0,0,0-30.46826,30.123A2.93765,2.93765,0,0,1,18.501,52.88721Z"/><path class="cls-3" d="M121.90039,53.89844a2.937,2.937,0,0,1-2.75879-1.93164A52.24383,52.24383,0,0,0,88.29785,20.88721a2.93689,2.93689,0,0,1,2.05664-5.502,58.10593,58.10593,0,0,1,34.30469,34.56982,2.938,2.938,0,0,1-2.75879,3.94336Z"/><path class="cls-1" d="M70.00358,0A13.70512,13.70512,0,1,0,83.70871,13.70512,13.70515,13.70515,0,0,0,70.00358,0ZM71.267,13.7056a1.26305,1.26305,0,0,1-1.26335,1.26287H63.81406a1.26287,1.26287,0,1,1,0-2.52574H68.7403V7.51554a1.26335,1.26335,0,0,1,2.52669,0Z"/><path class="cls-1" d="M126.29488,56.58884A13.70512,13.70512,0,1,0,140,70.294,13.70508,13.70508,0,0,0,126.29488,56.58884Zm5.77468,10.38735a1.56681,1.56681,0,0,1,2.23093,0,1.60068,1.60068,0,0,1,0,2.25017,1.56737,1.56737,0,0,1-2.23093,0,1.60038,1.60038,0,0,1,0-2.25017Zm-7.54715-1.928a2.51162,2.51162,0,0,1,3.57524,0,2.565,2.565,0,0,1,0,3.60625,2.51162,2.51162,0,0,1-3.57524,0,2.565,2.565,0,0,1,0-3.60625Zm-6.23792,1.93063a1.5634,1.5634,0,0,1,2.22525,0,1.59619,1.59619,0,0,1,0,2.24467,1.56284,1.56284,0,0,1-2.22525,0,1.59649,1.59649,0,0,1,0-2.24467Zm2.68007,3.6654a6.39166,6.39166,0,0,0-.19693.81152,7.79807,7.79807,0,0,0-.10283.809c-.01637.24617-.02533.49831-.02533.75691l.00167.02127h-3.03187a1.10266,1.10266,0,0,1-.79676-.288,1.03787,1.03787,0,0,1-.30024-.78559c0-.14651.0052-.28943.0144-.429a4.33416,4.33416,0,0,1,.0576-.45171,3.5455,3.5455,0,0,1,.10886-.44956,2.14765,2.14765,0,0,1,.17686-.40439,1.44744,1.44744,0,0,1,.25459-.33543,1.0724,1.0724,0,0,1,.35121-.22191,1.22631,1.22631,0,0,1,.45828-.08269.48223.48223,0,0,1,.17638.08891q.13578.08927.29988.19909a1.89517,1.89517,0,0,0,1.98853,0q.16455-.1097.3-.19909a.48335.48335,0,0,1,.17656-.08891,1.22426,1.22426,0,0,1,.4581.08269c.0325.013.0524.03728.08269.05234-.03806.05808-.08753.09895-.12249.16108A4.00779,4.00779,0,0,0,120.96455,70.64422Zm9.77838,4.033a1.885,1.885,0,0,1-1.36271.49258h-6.14a1.88549,1.88549,0,0,1-1.36307-.49258,1.77431,1.77431,0,0,1-.51277-1.34329c0-.25059.00813-.61721.0245-.856a7.29265,7.29265,0,0,1,.09847-.772,6.066,6.066,0,0,1,.18588-.7691,3.65919,3.65919,0,0,1,.30227-.69142,2.48761,2.48761,0,0,1,.43551-.57384,1.82866,1.82866,0,0,1,.60072-.37929,2.09347,2.09347,0,0,1,.78338-.14149.82984.82984,0,0,1,.30227.152q.23114.15272.51271.34057a3.24079,3.24079,0,0,0,3.40035,0q.28043-.18785.51283-.34057a.82408.82408,0,0,1,.30162-.152,2.09723,2.09723,0,0,1,.7838.14149,1.83315,1.83315,0,0,1,.60048.37929,2.47874,2.47874,0,0,1,.43534.57384,3.65918,3.65918,0,0,1,.30227.69142,6.04377,6.04377,0,0,1,.18642.7691,7.36956,7.36956,0,0,1,.09835.772c.01589.23876.02456.60538.02456.856A1.77479,1.77479,0,0,1,130.74293,74.6772Zm5.03432-1.92226a1.10266,1.10266,0,0,1-.79676.288h-3.03187l.00167-.02127c0-.2586-.009-.51074-.02533-.75691a7.7981,7.7981,0,0,0-.10283-.809,6.39164,6.39164,0,0,0-.19693-.81152,4.0078,4.0078,0,0,0-.32916-.75344c-.035-.06214-.08443-.103-.12249-.16108.03029-.01506.05019-.03932.08269-.05234a1.22426,1.22426,0,0,1,.4581-.08269.48335.48335,0,0,1,.17656.08891q.13542.08927.3.19909a1.89616,1.89616,0,0,0,1.98853,0q.164-.1097.29988-.19909a.48223.48223,0,0,1,.17638-.08891,1.22631,1.22631,0,0,1,.45828.08269,1.0724,1.0724,0,0,1,.35121.22191,1.44744,1.44744,0,0,1,.25459.33543,2.14765,2.14765,0,0,1,.17686.40439,3.54552,3.54552,0,0,1,.10886.44956,4.33419,4.33419,0,0,1,.0576.45171c.0092.13958.0144.2825.0144.429A1.03787,1.03787,0,0,1,135.77726,72.75493Z"/><path class="cls-1" d="M70,112.58975a13.70512,13.70512,0,1,0,13.70512,13.70512A13.70515,13.70515,0,0,0,70,112.58975Zm1.007,19.76708v2.064H69.46972v-1.96457a6.53761,6.53761,0,0,1-3.90045-1.49517l1.29537-2.16341a5.5877,5.5877,0,0,0,2.79007,1.281c.555,0,1.6228-.0564,1.6228-1.10991,0-.85466-1.20981-1.21029-2.5482-1.87948a3.3964,3.3964,0,0,1-2.16389-2.91769,3.54585,3.54585,0,0,1,2.90431-3.3737v-2.05061H71.007v2.00759a6.61862,6.61862,0,0,1,2.77621,1.02483L72.744,123.82937a4.80208,4.80208,0,0,0-2.30633-.76862c-.89672,0-1.35225.38431-1.35225,1.01049,0,.6692,1.06737,1.09652,2.36274,1.63762,1.26717.54109,2.66244,1.608,2.66244,3.10316A3.36356,3.36356,0,0,1,71.007,132.35683Z"/><circle class="cls-1" cx="10.13647" cy="70.34467" r="1.88816"/><circle class="cls-1" cx="18.92282" cy="66.60004" r="1.08812" transform="translate(-24.516 12.68615) rotate(-22.99741)"/><path class="cls-1" d="M13.70512,55.47344A13.70512,13.70512,0,1,0,27.41025,69.17856,13.70515,13.70515,0,0,0,13.70512,55.47344Zm1.85409,15.62727-1.31658.378a4.25056,4.25056,0,0,1-.40409.97129l.66483,1.1926-1.06892,1.069-1.19272-.66489a4.2574,4.2574,0,0,1-.97117.40415l-.378,1.31664H9.38045l-.378-1.31664a4.25628,4.25628,0,0,1-.97117-.40415l-1.19272.66489-1.06892-1.069L6.43443,72.45a4.25073,4.25073,0,0,1-.40415-.97129l-1.31658-.378v-1.512l1.31658-.3781a4.24982,4.24982,0,0,1,.40415-.97117L5.7696,67.0467l1.06892-1.06892,1.19272.66477a4.2506,4.2506,0,0,1,.97117-.404l.378-1.31652h1.51208l.378,1.31652a4.25172,4.25172,0,0,1,.97117.404l1.19272-.66477,1.06892,1.06892-.66483,1.19272a4.24966,4.24966,0,0,1,.40409.97117l1.31658.3781Zm6.29074-2.81456-.838-.0901a2.62646,2.62646,0,0,1-.4544.46378l.10271.83924-.85926.36471-.53231-.657a2.625,2.625,0,0,1-.6493.00466l-.51743.66549-.86517-.34965.0901-.83817a2.62409,2.62409,0,0,1-.46378-.45434l-.8393.10277-.36471-.85932.657-.53237a2.62447,2.62447,0,0,1-.0046-.64924l-.66543-.51743.34959-.86517.83811.09022a2.621,2.621,0,0,1,.4544-.4639l-.10271-.83936.8592-.36471.53237.657a2.62446,2.62446,0,0,1,.64924-.00454l.51743-.66537.86517.34954-.0901.838a2.62512,2.62512,0,0,1,.46384.45446l.8393-.10265.36465.8592-.65695.53225a2.62543,2.62543,0,0,1,.0046.64936l.66537.51743Z"/></g></g></svg>