<svg width="144" height="33" viewBox="0 0 144 33" fill="none" xmlns="http://www.w3.org/2000/svg">
<g clip-path="url(#clip0_205_2106)">
<path d="M25.087 14.7335C25.2737 14.7472 25.4613 14.7223 25.638 14.6603C25.8147 14.5983 25.9767 14.5005 26.1139 14.373C26.2511 14.2455 26.3606 14.0912 26.4354 13.9195C26.5102 13.7478 26.5489 13.5626 26.5489 13.3753C26.5489 13.188 26.5102 13.0028 26.4354 12.8311C26.3606 12.6594 26.2511 12.505 26.1139 12.3776C25.9767 12.2501 25.8147 12.1523 25.638 12.0903C25.4613 12.0283 25.2737 12.0033 25.087 12.0171C24.7258 12.0171 24.3794 12.1606 24.124 12.416C23.8686 12.6714 23.7251 13.0178 23.7251 13.379C23.7251 13.7401 23.8686 14.0865 24.124 14.3419C24.3794 14.5973 24.7258 14.7408 25.087 14.7408" fill="white"/>
<path d="M11.8365 0.930893H1.51587C1.33703 0.931747 1.16154 0.97946 1.00689 1.06927C0.852234 1.15909 0.723822 1.28787 0.634451 1.44278C0.54508 1.59769 0.497871 1.77332 0.49753 1.95216C0.497189 2.131 0.543727 2.30681 0.632507 2.46206L16.9747 30.7739C17.3722 31.4511 18.3513 31.4511 18.7415 30.7739L26.9126 16.5812H20.8542L11.8365 0.930893ZM34.2151 0.930893H23.9091L29.9455 11.384L35.0984 2.46206C35.1872 2.30681 35.2337 2.131 35.2334 1.95216C35.233 1.77332 35.1858 1.59769 35.0965 1.44278C35.0071 1.28787 34.8787 1.15909 34.724 1.06927C34.5694 0.97946 34.3939 0.931747 34.2151 0.930893" fill="white"/>
<path d="M57.1825 27.5864H58.1395C58.2206 27.5901 58.3008 27.5668 58.3674 27.5202C58.4339 27.4736 58.4832 27.4063 58.5075 27.3287L61.9895 18.9147C62.0043 18.8808 62.0103 18.8437 62.007 18.8069C62.0038 18.77 61.9913 18.7346 61.9708 18.7038C61.9503 18.6731 61.9224 18.6479 61.8896 18.6308C61.8569 18.6136 61.8203 18.6049 61.7833 18.6055H60.7969C60.714 18.6022 60.6322 18.6254 60.5633 18.6717C60.4945 18.718 60.4422 18.7851 60.4141 18.8632L57.6536 25.8491L54.9005 18.8632C54.8723 18.7851 54.8201 18.718 54.7512 18.6717C54.6824 18.6254 54.6006 18.6022 54.5177 18.6055H53.5239C53.4869 18.6049 53.4504 18.6136 53.4176 18.6308C53.3848 18.6479 53.3569 18.6731 53.3364 18.7038C53.3159 18.7346 53.3034 18.77 53.3002 18.8069C53.2969 18.8437 53.303 18.8808 53.3178 18.9147L56.807 27.3287C56.8313 27.4063 56.8806 27.4736 56.9472 27.5202C57.0138 27.5668 57.0939 27.5901 57.1751 27.5864H57.1825ZM65.3389 27.741C66.2075 27.741 67.1792 27.4612 67.8417 26.8723C67.989 26.7398 67.9595 26.5852 67.8344 26.4601L67.3927 26.0258C67.2676 25.9006 67.1277 25.908 66.9878 26.0258C66.5535 26.3423 65.9131 26.5116 65.3683 26.5116C64.1979 26.5116 63.4176 25.9006 63.3071 24.9289H67.9448C68.254 24.9289 68.4306 24.7596 68.4454 24.4504V24.3621C68.4454 22.1905 67.1277 21.1158 65.2505 21.1158C64.8123 21.0939 64.3742 21.1636 63.9644 21.3205C63.5546 21.4774 63.1819 21.7179 62.8702 22.0269C62.5586 22.3358 62.3147 22.7062 62.1542 23.1147C61.9936 23.5231 61.92 23.9605 61.9379 24.3989C61.9379 26.4233 63.263 27.741 65.3389 27.741V27.741ZM63.3292 23.81C63.5353 22.8015 64.3156 22.2936 65.2873 22.2936C66.3621 22.2936 67.0614 22.8089 67.1571 23.81H63.3292ZM70.0575 27.5569H70.7863C70.9777 27.5569 71.0807 27.4612 71.0807 27.2625V24.2591C71.0807 23.2285 71.7874 22.3451 72.8475 22.3451C73.9296 22.3451 74.5406 23.096 74.5406 24.1854V27.2699C74.5406 27.4612 74.651 27.5643 74.835 27.5643H75.5859C75.7773 27.5643 75.8803 27.4612 75.8803 27.2699V24.1781C75.8803 22.2052 74.6878 21.1305 73.164 21.1305C72.756 21.1325 72.3536 21.2262 71.9867 21.4045C71.6197 21.5829 71.2976 21.8415 71.0439 22.1611L70.9924 21.5206C70.9777 21.3292 70.8599 21.2409 70.6832 21.2409H70.0575C69.8661 21.2409 69.763 21.344 69.763 21.5353V27.2699C69.763 27.4612 69.8661 27.5643 70.0575 27.5643V27.5569ZM80.4002 27.6894C81.2321 27.6894 82.0933 27.3655 82.5939 26.5632L82.6381 27.2772C82.6528 27.4612 82.7706 27.5569 82.9473 27.5569H83.6098C83.8085 27.5569 83.9042 27.4612 83.9042 27.2625V18.9073C83.9042 18.7159 83.8085 18.6129 83.6098 18.6129H82.881C82.6896 18.6129 82.5865 18.7159 82.5865 18.9073V22.2494C82.1817 21.4912 81.1437 21.1231 80.3781 21.1231C78.5525 21.1231 77.1833 22.2641 77.1833 24.4063C77.1833 26.5043 78.5746 27.6968 80.4002 27.6968V27.6894ZM80.4959 26.4601C79.3696 26.4601 78.501 25.6798 78.501 24.3989C78.501 23.1254 79.3696 22.3525 80.4886 22.3525C80.7567 22.3483 81.023 22.3987 81.2711 22.5006C81.5192 22.6024 81.7441 22.7536 81.932 22.945C82.1199 23.1363 82.267 23.3639 82.3643 23.6138C82.4617 23.8638 82.5072 24.1309 82.4982 24.3989C82.5082 24.6673 82.4636 24.9349 82.3673 25.1856C82.2709 25.4363 82.1248 25.6649 81.9377 25.8575C81.7505 26.0501 81.5263 26.2029 81.2785 26.3064C81.0307 26.41 80.7645 26.4623 80.4959 26.4601V26.4601ZM85.9949 27.5569H86.7236C86.915 27.5569 87.0181 27.4612 87.0181 27.2625V24.1486C87.0181 22.9855 87.8058 22.4187 88.7112 22.4187C89.0866 22.4187 89.3443 22.485 89.5725 22.6248C89.7418 22.7279 89.8817 22.6911 89.97 22.5218L90.3013 21.8961C90.3749 21.7415 90.3675 21.5869 90.2129 21.4838C89.8092 21.239 89.3453 21.1115 88.8732 21.1158C88.1885 21.1158 87.4745 21.2777 87.0181 22.0875L86.9445 21.5206C86.9445 21.344 86.8267 21.2409 86.65 21.2409H85.9875C85.8035 21.2409 85.693 21.344 85.693 21.5353V27.2699C85.693 27.4612 85.8035 27.5643 85.9875 27.5643L85.9949 27.5569ZM90.0657 27.6158C90.9343 27.6158 91.4202 26.9901 91.4202 26.254C91.4202 25.5178 90.9343 24.8921 90.0657 24.8921C89.2044 24.8921 88.7259 25.5178 88.7259 26.254C88.7259 26.9901 89.2044 27.6158 90.0657 27.6158ZM90.0657 27.3067C89.4326 27.3067 89.0645 26.8429 89.0645 26.254C89.0645 25.6651 89.4326 25.2013 90.0657 25.2013C90.7135 25.2013 91.0742 25.6724 91.0742 26.254C91.0742 26.8429 90.7061 27.3067 90.0657 27.3067ZM89.624 26.9386H89.7712C89.8301 26.9386 89.8596 26.9091 89.8596 26.8576V26.4895H90.0289L90.3454 26.8871C90.3749 26.9239 90.4117 26.9386 90.4558 26.9386H90.6399C90.6988 26.9386 90.7282 26.9239 90.7282 26.9091C90.7282 26.8871 90.7209 26.865 90.6914 26.8355L90.3601 26.438C90.5884 26.3865 90.7061 26.2172 90.7061 26.0258C90.7061 25.7976 90.5295 25.5547 90.1908 25.5547H89.6314C89.5725 25.5547 89.543 25.5915 89.543 25.643V26.8576C89.543 26.9091 89.5725 26.9386 89.6314 26.9386H89.624ZM89.8596 26.2172V25.8417H90.1908C90.3233 25.8417 90.3896 25.9374 90.3896 26.0258C90.3896 26.1215 90.316 26.2172 90.1908 26.2172H89.8596ZM95.5794 27.5569H96.4186C96.6099 27.5569 96.713 27.4612 96.713 27.2625V24.8112H99.422C101.557 24.8112 102.632 23.2653 102.632 21.7047C102.632 20.1588 101.564 18.6129 99.422 18.6129H95.5794C95.3806 18.6129 95.2849 18.7086 95.2849 18.9073V27.2699C95.2849 27.4612 95.3806 27.5643 95.5794 27.5643V27.5569ZM96.713 23.4935V19.9232H99.422C100.6 19.9232 101.189 20.8213 101.189 21.7194C101.189 22.6027 100.6 23.4935 99.422 23.4935H96.713V23.4935ZM106.577 27.7263C107.343 27.7263 108.344 27.3582 108.749 26.5411L108.8 27.2772C108.815 27.4612 108.911 27.5569 109.095 27.5569H109.772C109.963 27.5569 110.067 27.4612 110.067 27.2625V21.5353C110.067 21.344 109.963 21.2409 109.772 21.2409H109.065C108.874 21.2409 108.771 21.344 108.771 21.5206L108.749 22.2568C108.523 21.8938 108.205 21.5971 107.828 21.3967C107.45 21.1963 107.026 21.0993 106.599 21.1158C104.796 21.1158 103.338 22.2936 103.338 24.3989C103.338 26.5484 104.737 27.7263 106.577 27.7263V27.7263ZM106.702 26.4969C106.427 26.5044 106.153 26.4548 105.898 26.3514C105.643 26.2479 105.412 26.0928 105.22 25.8957C105.028 25.6986 104.879 25.4639 104.781 25.2063C104.684 24.9487 104.642 24.6738 104.656 24.3989C104.643 24.1249 104.686 23.8512 104.784 23.5948C104.881 23.3385 105.031 23.1051 105.223 22.9094C105.415 22.7138 105.646 22.56 105.901 22.4578C106.155 22.3556 106.428 22.3072 106.702 22.3157C108.072 22.3157 108.749 23.3683 108.749 24.3989C108.749 25.4516 108.072 26.4969 106.702 26.4969ZM112.15 27.5569H112.879C113.07 27.5569 113.173 27.4612 113.173 27.2625V24.1486C113.173 22.9855 113.968 22.4187 114.873 22.4187C115.242 22.4187 115.499 22.485 115.727 22.6248C115.897 22.7279 116.037 22.6911 116.125 22.5218L116.456 21.8961C116.53 21.7415 116.53 21.5869 116.368 21.4838C115.964 21.239 115.5 21.1115 115.028 21.1158C114.351 21.1158 113.629 21.2777 113.173 22.0875L113.107 21.5206C113.099 21.344 112.982 21.2409 112.805 21.2409H112.15C111.958 21.2409 111.855 21.344 111.855 21.5353V27.2699C111.855 27.4612 111.958 27.5643 112.15 27.5643V27.5569ZM120.233 27.6379C120.63 27.6379 120.961 27.5864 121.322 27.4612C121.499 27.4097 121.572 27.2772 121.513 27.0932L121.322 26.5484C121.248 26.3718 121.116 26.2908 120.91 26.357C120.741 26.4233 120.564 26.4454 120.409 26.4454C119.798 26.4454 119.504 26.0773 119.504 25.4148V22.3745H121.064C121.256 22.3745 121.359 22.2715 121.359 22.0801V21.528C121.359 21.3366 121.256 21.2335 121.064 21.2335H119.519V19.776C119.519 19.5478 119.401 19.4447 119.173 19.4742L118.436 19.5478C118.274 19.5625 118.186 19.6656 118.186 19.8275V21.2335H117.266C117.075 21.2335 116.971 21.3366 116.971 21.528V22.0801C116.971 22.2715 117.075 22.3745 117.266 22.3745H118.186V25.4074C118.186 26.865 118.915 27.6306 120.233 27.6306V27.6379ZM122.978 27.5569H123.714C123.906 27.5569 124.009 27.4612 124.009 27.2625V24.2591C124.009 23.2285 124.708 22.3451 125.776 22.3451C126.858 22.3451 127.469 23.096 127.469 24.1854V27.2699C127.469 27.4612 127.572 27.5643 127.763 27.5643H128.507C128.698 27.5643 128.801 27.4612 128.801 27.2699V24.1781C128.801 22.2052 127.609 21.1305 126.092 21.1305C125.683 21.1314 125.279 21.2245 124.911 21.4029C124.543 21.5814 124.219 21.8405 123.965 22.1611L123.913 21.5206C123.906 21.3292 123.788 21.2409 123.611 21.2409H122.978C122.787 21.2409 122.684 21.344 122.684 21.5353V27.2699C122.684 27.4612 122.787 27.5643 122.978 27.5643V27.5569ZM133.505 27.741C134.374 27.741 135.345 27.4612 136.008 26.8723C136.155 26.7398 136.126 26.5852 136.001 26.4601L135.559 26.0258C135.441 25.9006 135.294 25.908 135.154 26.0258C134.72 26.3423 134.079 26.5116 133.535 26.5116C132.371 26.5116 131.591 25.9006 131.473 24.9289H136.111C136.42 24.9289 136.604 24.7596 136.612 24.4504V24.3621C136.612 22.1905 135.294 21.1158 133.417 21.1158C132.978 21.0939 132.54 21.1636 132.131 21.3205C131.721 21.4774 131.348 21.7179 131.036 22.0269C130.725 22.3358 130.481 22.7062 130.32 23.1147C130.16 23.5231 130.086 23.9605 130.104 24.3989C130.104 26.4233 131.429 27.741 133.505 27.741V27.741ZM131.495 23.81C131.702 22.8015 132.482 22.2936 133.454 22.2936C134.528 22.2936 135.235 22.8089 135.323 23.81H131.495ZM138.231 27.5569H138.953C139.144 27.5569 139.247 27.4612 139.247 27.2625V24.1486C139.247 22.9855 140.042 22.4187 140.947 22.4187C141.316 22.4187 141.573 22.485 141.809 22.6248C141.971 22.7279 142.111 22.6911 142.206 22.5218L142.537 21.8961C142.611 21.7415 142.596 21.5869 142.449 21.4838C142.043 21.2377 141.577 21.1101 141.102 21.1158C140.425 21.1158 139.703 21.2777 139.247 22.0875L139.188 21.5206C139.173 21.344 139.056 21.2409 138.879 21.2409H138.224C138.032 21.2409 137.929 21.344 137.929 21.5353V27.2699C137.929 27.4612 138.032 27.5643 138.224 27.5643L138.231 27.5569Z" fill="white"/>
<path d="M54.0539 15.0942H55.2023C55.4231 15.0942 55.5483 14.969 55.5483 14.7482V11.8257H57.4254L60.0976 14.9028C60.1493 14.9671 60.2158 15.0181 60.2914 15.0514C60.367 15.0847 60.4495 15.0994 60.5319 15.0942H61.9158C62.2103 15.0942 62.306 14.888 62.1072 14.6672L59.413 11.627C61.268 11.2515 61.8864 9.89703 61.8864 8.5499C61.8864 6.87151 60.6718 5.3109 58.3603 5.3109H54.0539C53.8331 5.3109 53.7006 5.43605 53.7006 5.65689V14.7482C53.7006 14.969 53.8331 15.0942 54.0539 15.0942ZM55.5483 10.162V7.0261H58.3603C59.5234 7.0261 60.0387 7.81377 60.0387 8.59407C60.0387 9.37438 59.5381 10.162 58.3603 10.162H55.5483V10.162ZM64.2347 15.0942H70.8599C71.0881 15.0942 71.2132 14.969 71.2132 14.7482V13.6292C71.2132 13.4084 71.0881 13.2759 70.8673 13.2759H65.7143V11.0675H70.6685C70.8893 11.0675 71.0219 10.9423 71.0219 10.7215V9.69828C71.0219 9.47743 70.8967 9.35229 70.6685 9.35229H65.7217V7.09971H70.8673C71.0881 7.09971 71.2132 6.97457 71.2132 6.74637V5.66425C71.2132 5.44341 71.0881 5.3109 70.8673 5.3109H64.242C64.0138 5.3109 63.8887 5.44341 63.8887 5.66425V14.7555C63.8887 14.9764 64.0138 15.1015 64.2347 15.1015V15.0942ZM77.7943 15.3224C79.4359 15.3224 80.6137 14.7334 81.5486 13.7102C81.6484 13.5995 81.7012 13.4543 81.6958 13.3053V9.78661C81.6958 9.56577 81.5633 9.44063 81.3425 9.44063H77.8458C77.625 9.44063 77.4925 9.56577 77.4925 9.78661V10.7436C77.4925 10.9644 77.6176 11.0896 77.8458 11.0896H79.9954V12.8269C79.3816 13.3521 78.5944 13.6302 77.7869 13.6072C75.3577 13.6072 74.4154 11.9435 74.4154 10.3387C74.4154 8.30698 75.689 6.7979 77.7869 6.7979C78.5304 6.7979 79.3844 7.06291 80.0248 7.54876C80.1941 7.69598 80.3634 7.70335 80.518 7.5414L81.1805 6.84943C81.3278 6.68748 81.3425 6.51817 81.1584 6.36358C80.2314 5.5414 79.0334 5.09051 77.7943 5.09742C74.3418 5.09742 72.6193 7.64446 72.6193 10.324C72.6193 12.9005 74.121 15.3224 77.7943 15.3224ZM83.9263 15.0942H85.06C85.2808 15.0942 85.4133 14.969 85.4133 14.7482V5.65689C85.4133 5.43605 85.2882 5.30354 85.06 5.30354H83.9263C83.7055 5.30354 83.5803 5.43605 83.5803 5.65689V14.7482C83.5803 14.969 83.7055 15.0942 83.9263 15.0942V15.0942ZM91.2288 15.3371C93.4151 15.3371 95.3438 14.4095 95.3438 12.2306C95.3438 9.87495 93.4519 9.37438 91.3981 9.10937C90.2203 8.96214 89.2191 8.73394 89.2191 7.88002C89.2191 7.27639 89.8596 6.68012 91.2435 6.68012C92.1416 6.68012 92.9514 7.04818 93.371 7.51931C93.5182 7.66654 93.6654 7.72543 93.8494 7.62973L94.7107 7.18069C94.9095 7.08499 94.9757 6.90096 94.8579 6.7022C94.0556 5.45077 92.6127 5.06798 91.192 5.06798C89.3811 5.06798 87.4009 5.99551 87.4009 7.82113C87.4009 10.0075 89.2412 10.5669 91.2435 10.7878C92.5465 10.9423 93.5108 11.3031 93.5108 12.2306C93.5108 13.2906 92.4213 13.7029 91.2582 13.7029C90.1835 13.7029 89.175 13.3201 88.6597 12.4514C88.5419 12.26 88.3947 12.2011 88.1959 12.3116L87.2757 12.79C87.077 12.9005 87.0034 13.0551 87.1064 13.2538C87.872 14.7997 89.359 15.3371 91.2288 15.3371V15.3371ZM99.5545 15.0942H100.696C100.916 15.0942 101.049 14.969 101.049 14.7482V6.98193H103.802C104.023 6.98193 104.155 6.85679 104.155 6.63595V5.65689C104.155 5.43605 104.03 5.30354 103.802 5.30354H96.4406C96.2198 5.30354 96.0947 5.43605 96.0947 5.65689V6.63595C96.0947 6.85679 96.2198 6.98193 96.448 6.98193H99.2012V14.7482C99.2012 14.969 99.3263 15.0942 99.5545 15.0942ZM105.9 15.0942H112.525C112.753 15.0942 112.879 14.969 112.879 14.7482V13.6292C112.879 13.4084 112.753 13.2759 112.533 13.2759H107.38V11.0675H112.334C112.555 11.0675 112.687 10.9423 112.687 10.7215V9.69828C112.687 9.47743 112.562 9.35229 112.334 9.35229H107.387V7.09971H112.533C112.753 7.09971 112.879 6.97457 112.879 6.74637V5.66425C112.879 5.44341 112.753 5.3109 112.533 5.3109H105.907C105.679 5.3109 105.554 5.44341 105.554 5.66425V14.7555C105.554 14.9764 105.679 15.1015 105.9 15.1015V15.0942ZM115.205 15.0942H116.353C116.574 15.0942 116.699 14.969 116.699 14.7482V11.8257H118.576L121.248 14.9028C121.299 14.9661 121.365 15.0164 121.439 15.0497C121.513 15.083 121.594 15.0982 121.675 15.0942H123.067C123.361 15.0942 123.457 14.888 123.258 14.6672L120.556 11.627C122.419 11.2515 123.037 9.89703 123.037 8.5499C123.037 6.87151 121.815 5.3109 119.511 5.3109H115.205C114.984 5.3109 114.851 5.43605 114.851 5.65689V14.7482C114.851 14.969 114.977 15.0942 115.205 15.0942V15.0942ZM116.699 10.162V7.0261H119.511C120.674 7.0261 121.19 7.81377 121.19 8.59407C121.19 9.37438 120.689 10.162 119.511 10.162H116.699V10.162ZM125.386 15.0942H132.011C132.232 15.0942 132.364 14.969 132.364 14.7482V13.6292C132.364 13.4084 132.239 13.2759 132.011 13.2759H126.865V11.0675H131.819C132.04 11.0675 132.165 10.9423 132.165 10.7215V9.69828C132.165 9.47743 132.04 9.35229 131.819 9.35229H126.865V7.09971H132.018C132.239 7.09971 132.364 6.97457 132.364 6.74637V5.66425C132.364 5.44341 132.239 5.3109 132.011 5.3109H125.386C125.165 5.3109 125.032 5.44341 125.032 5.66425V14.7555C125.032 14.9764 125.157 15.1015 125.386 15.1015V15.0942ZM134.683 15.0942H138.18C141.566 15.0942 143.075 12.6649 143.075 10.2136C143.075 7.75488 141.581 5.30354 138.18 5.30354H134.683C134.462 5.30354 134.337 5.43605 134.337 5.65689V14.7482C134.337 14.969 134.462 15.0942 134.683 15.0942ZM136.17 13.3274V7.04818H138.18C140.351 7.04818 141.242 8.6456 141.242 10.2136C141.242 11.7595 140.359 13.3127 138.18 13.3127H136.17V13.3274Z" fill="white"/>
<path fill-rule="evenodd" clip-rule="evenodd" d="M45.5663 0.827835C45.5663 0.606994 45.3896 0.437683 45.1761 0.437683H44.6608C44.44 0.437683 44.2707 0.614356 44.2707 0.827835V31.9811C44.2707 32.202 44.44 32.3713 44.6535 32.3713H45.1687C45.3896 32.3713 45.5663 32.1946 45.5663 31.9811V0.827835Z" fill="white"/>
</g>
<defs>
<clipPath id="clip0_205_2106">
<rect width="142.81" height="32.39" fill="white" transform="translate(0.5 0.437683)"/>
</clipPath>
</defs>
</svg>
