<svg xmlns="http://www.w3.org/2000/svg" width="166" height="140" viewBox="0 0 166 140"><defs><style>.cls-1{fill:#f1c40f;}.cls-2{fill:#ff3163;}</style></defs><title>icon-2</title><g id="Layer_2" data-name="Layer 2"><g id="Layer_1-2" data-name="Layer 1"><path class="cls-1" d="M27.83015,74.05225v-6.7842L61.4964,51.13076v9.60685l-22.2473,9.9432L61.4964,80.75187v9.60685Z"/><path class="cls-2" d="M75.28018,97.52156H65.79971L89.10083,35.54029h9.39588Z"/><path class="cls-1" d="M104.77982,90.35871V80.75187l22.2055-10.07106-22.2055-9.9432V51.13076l33.66625,16.1373v6.7842Z"/><path class="cls-1" d="M65.82228,0h-8.5718a2.8574,2.8574,0,0,0-2.85727,2.85727v20.609a2.85739,2.85739,0,0,0,2.85727,2.85727h8.5718a2.85739,2.85739,0,0,0,2.85727-2.85727V2.85727A2.8574,2.8574,0,0,0,65.82228,0ZM59.21486,1.78579h4.64306a.53574.53574,0,0,1,0,1.07147H59.21486a.53574.53574,0,1,1,0-1.07147Zm2.32153,23.10909a1.07147,1.07147,0,1,1,1.07147-1.07147A1.07186,1.07186,0,0,1,61.53638,24.89488Zm5.71453-3.57158H55.82185V4.2859H67.25092Z"/><path class="cls-2" d="M141.79561,20.99023a6.38456,6.38456,0,0,0-3.68744-5.66705l1.2077-2.12061a.13251.13251,0,0,0-.05133-.17609.13664.13664,0,0,0-.18127.04468l-1.22607,2.1394a7.61162,7.61162,0,0,0-6.18591,0l-1.226-2.1394a.13114.13114,0,0,0-.17761-.0451.13456.13456,0,0,0-.05469.17651l.00012-.00031,1.2074,2.12091a6.38456,6.38456,0,0,0-3.68744,5.66705h14.06256Zm-3.68744-3.68042a.67352.67352,0,0,1,.66876.6756.66877.66877,0,0,1-1.33752,0A.67352.67352,0,0,1,138.10817,17.30981Zm-6.68768,1.3418a.66525.66525,0,0,1-.66876-.6662.6688.6688,0,1,1,1.33752,0A.66525.66525,0,0,1,131.42049,18.65161Zm-3.744,13.9422a1.42215,1.42215,0,0,0,1.16907,1.23425h1.67328v3.67462a1.523,1.523,0,1,0,3.028,0V33.82806h2.43359v3.67462a1.52722,1.52722,0,1,0,3.03735,0V33.82806h1.66394a1.422,1.422,0,0,0,1.16895-1.23425V21.817H127.67653Zm-2.3327-11.00232a1.60931,1.60931,0,0,0-1.51562,1.68921v6.39362a1.52436,1.52436,0,1,0,3.03088,0V23.2807A1.60915,1.60915,0,0,0,125.34383,21.59149Zm18.84131,0a1.60929,1.60929,0,0,0-1.51544,1.68921v6.39362a1.52436,1.52436,0,1,0,3.03088,0V23.2807A1.60921,1.60921,0,0,0,144.18514,21.59149Z"/><path class="cls-2" d="M30.21365,100.36526a5.27157,5.27157,0,0,1,3.86968-2.14537,5.2663,5.2663,0,0,1-1.27343,3.94074,4.159,4.159,0,0,1-3.66926,1.727A4.57978,4.57978,0,0,1,30.21365,100.36526Zm-.86714,4.92885c.83281,0,2.37866-1.14581,4.39055-1.14581a5.49912,5.49912,0,0,1,4.82585,2.46556,5.35445,5.35445,0,0,0-2.66478,4.67161,5.48973,5.48973,0,0,0,3.31966,5.01749s-2.3205,6.53512-5.45492,6.53512c-1.43952,0-2.55871-.97068-4.07555-.97068-1.54571,0-3.07972,1.00674-4.07874,1.00674-2.86213.0004-6.478-6.199-6.478-11.18251,0-4.90264,3.06056-7.47466,5.93134-7.47466,1.86617,0,3.31447,1.07714,4.28462,1.07714Z"/><path class="cls-1" d="M123.08827,137.4744a.06337.06337,0,0,0-.05669-.0675H78.59748a.06337.06337,0,0,0-.05669.0675v1.32984c0,.0375.08029,1.19576,1.76025,1.19576h41.02527c1.68,0,1.7614-1.15826,1.7614-1.19576V137.4744Z"/><path class="cls-1" d="M116.622,114.18629H85.00661a1.12136,1.12136,0,0,0-1.11765,1.11765v20.92783h33.85017V115.30394A1.12061,1.12061,0,0,0,116.622,114.18629Zm-15.80768.72348a.42424.42424,0,1,1-.42425.42424A.42419.42419,0,0,1,100.81429,114.90977Zm14.70733,19.76236H86.13313V116.52042h29.38849Z"/><path class="cls-2" d="M166,85.0776v3.091a.7835.7835,0,0,1-.77265.77265h-20.091a.7835.7835,0,0,1-.77265-.77265v-3.091a.7835.7835,0,0,1,.77265-.77265h20.091A.7835.7835,0,0,1,166,85.0776Zm0,6.18205v3.0906a.78349.78349,0,0,1-.77265.77308h-20.091a.78349.78349,0,0,1-.77265-.77308v-3.0906a.7835.7835,0,0,1,.77265-.77265h20.091A.7835.7835,0,0,1,166,91.25965Zm0,6.18162v3.091a.7835.7835,0,0,1-.77265.77265h-20.091a.7835.7835,0,0,1-.77265-.77265v-3.091a.7835.7835,0,0,1,.77265-.77265h20.091A.7835.7835,0,0,1,166,97.44127ZM152.091,93.5776h12.36325V92.0323H152.091Zm4.63632,6.18205h7.72692V98.21392h-7.72692Zm3.0906-12.36368h4.63632v-1.5453h-4.63632Z"/><path class="cls-2" d="M21,37.49653,19.09091,58.94391l-8.6208,2.41626-8.561-2.41626L0,37.49653Zm-3.90786,4.38514H3.90786l.701,7.96417h9.12745l-.3278,3.4007-2.93837.79064-2.92342-.79064-.1938-2.08845H4.74283l.32832,4.147,5.399,1.49161h.05979v-.01546L15.884,55.30509l.7458-8.11364H7.02508l-.22369-2.69973H16.8535Z"/></g></g></svg>